<?xml version="1.0" encoding="UTF-8"?>
<svg xmlns="http://www.w3.org/2000/svg" viewBox="0 0 640 400" role="img" aria-hidden="true">
  <defs>
    <linearGradient id="c-bg" x1="0" y1="0" x2="640" y2="400">
      <stop stop-color="#0a121c"/>
      <stop offset="1" stop-color="#132536"/>
    </linearGradient>
    <linearGradient id="c-wave" x1="80" y1="280" x2="560" y2="280">
      <stop stop-color="#3a6f9a" stop-opacity=".35"/>
      <stop offset=".5" stop-color="#6a9cc0"/>
      <stop offset="1" stop-color="#3a6f9a" stop-opacity=".35"/>
    </linearGradient>
  </defs>
  <rect width="640" height="400" fill="url(#c-bg)"/>
  <g stroke="#243a52" stroke-width="1" fill="none" opacity=".7">
    <path d="M0 310 C80 290 140 330 220 300 S360 250 460 290 600 330 640 300"/>
    <path d="M0 250 C120 230 180 270 280 240 S430 190 520 230 620 270 640 250"/>
  </g>
  <rect x="248" y="72" width="144" height="176" rx="72" fill="#0d1420" stroke="#4a82b0" stroke-width="4"/>
  <rect x="268" y="92" width="104" height="136" rx="52" fill="#3a6f9a" opacity=".35"/>
  <rect x="308" y="248" width="24" height="52" rx="4" fill="#4a82b0"/>
  <rect x="276" y="292" width="88" height="10" rx="5" fill="#4a82b0"/>
  <rect x="252" y="318" width="136" height="14" rx="7" fill="#243a52"/>
  <rect x="430" y="92" width="86" height="28" rx="14" fill="#4a82b0"/>
  <text x="473" y="111" text-anchor="middle" fill="#e8f0f8" font-family="DM Sans, sans-serif" font-size="13" font-weight="700" letter-spacing="1.4">LIVE</text>
  <path d="M80 348 C140 320 190 360 250 338 S370 300 450 328 560 360 600 336" stroke="url(#c-wave)" stroke-width="3" fill="none"/>
</svg>
