<?xml version="1.0" encoding="UTF-8"?>
<svg xmlns="http://www.w3.org/2000/svg" viewBox="0 0 640 400" role="img" aria-hidden="true">
  <defs>
    <linearGradient id="p-bg" x1="0" y1="0" x2="640" y2="400">
      <stop stop-color="#0a121c"/>
      <stop offset="1" stop-color="#132536"/>
    </linearGradient>
  </defs>
  <rect width="640" height="400" fill="url(#p-bg)"/>
  <g font-family="DM Sans, sans-serif">
    <g transform="translate(168 58)">
      <rect width="304" height="92" rx="16" fill="#0d1420" stroke="#243a52"/>
      <path d="M28 32 l6 12 14 2 -10 10 2 14 -12 -7 -12 7 2 -14 -10 -10 14 -2 z" fill="#3a6f9a"/>
      <text x="72" y="40" fill="#dce6f0" font-size="16" font-weight="600">Late night lo-fi</text>
      <text x="72" y="64" fill="#7a8fa8" font-size="12">80 BPM / Small Music</text>
    </g>
    <g transform="translate(140 154)">
      <rect width="360" height="100" rx="16" fill="#0d1420" stroke="#4a82b0"/>
      <path d="M32 36 l7 14 16 2 -12 11 3 16 -14 -8 -14 8 3 -16 -12 -11 16 -2 z" fill="#6a9cc0"/>
      <text x="84" y="44" fill="#e8f0f8" font-size="18" font-weight="700">Game chat ambient</text>
      <text x="84" y="70" fill="#8aa8c4" font-size="13">saved / switch mid-stream</text>
    </g>
    <g transform="translate(188 274)">
      <rect width="264" height="78" rx="16" fill="#132536" stroke="#243a52"/>
      <path d="M28 30 l5 11 12 2 -9 8 2 12 -10 -6 -10 6 2 -12 -9 -8 12 -2 z" fill="#3a6f9a"/>
      <text x="68" y="38" fill="#dce6f0" font-size="15" font-weight="600">Ending theme</text>
      <text x="68" y="58" fill="#7a8fa8" font-size="12">crossfade 3s</text>
    </g>
  </g>
</svg>
